<?xml version="1.0" encoding="UTF-8" standalone="no"?>
<!-- Created with Inkscape (http://www.inkscape.org/) -->

<svg
   version="1.1"
   id="svg1"
   width="381.91373"
   height="343.84518"
   viewBox="0 0 381.91373 343.84518"
   sodipodi:docname="alpine.svg"
   inkscape:version="1.3.2 (091e20e, 2023-11-25, custom)"
   xmlns:inkscape="http://www.inkscape.org/namespaces/inkscape"
   xmlns:sodipodi="http://sodipodi.sourceforge.net/DTD/sodipodi-0.dtd"
   xmlns="http://www.w3.org/2000/svg"
   xmlns:svg="http://www.w3.org/2000/svg">
  <defs
     id="defs1" />
  <sodipodi:namedview
     id="namedview1"
     pagecolor="#ffffff"
     bordercolor="#000000"
     borderopacity="0.25"
     inkscape:showpageshadow="2"
     inkscape:pageopacity="0.0"
     inkscape:pagecheckerboard="0"
     inkscape:deskcolor="#d1d1d1"
     showgrid="false"
     inkscape:zoom="5.9891944"
     inkscape:cx="206.20469"
     inkscape:cy="127.06216"
     inkscape:window-width="1920"
     inkscape:window-height="1094"
     inkscape:window-x="-11"
     inkscape:window-y="-11"
     inkscape:window-maximized="1"
     inkscape:current-layer="layer1" />
  <g
     inkscape:groupmode="layer"
     id="layer1"
     inkscape:label="AlpineSGV">
    <path
       style="fill:#000080;stroke:#000000;stroke-width:0"
       d="m 117.35537,229.75207 h 5.90319 l 0.35419,15.9386 22.19599,0.11807 -1.77096,3.8961 h -26.80047 z"
       id="path2" />
    <path
       style="fill:#000080;fill-opacity:1;stroke:#000000;stroke-width:0"
       d="m 220.73086,487.71166 68.79056,-46.75086 -10.68592,30.72199 196.68756,0.5009 -22.03969,16.19584 z"
       id="path17"
       transform="translate(-156.94933,-304.54846)" />
    <path
       style="fill:#000080;stroke:#000000;stroke-width:0"
       d="m 208.1464,229.75207 h 6.25738 v 19.95277 h -5.90319 z"
       id="path4" />
    <path
       style="fill:#000080;fill-opacity:1;stroke:#000000;stroke-width:0"
       d="M 426.93556,398.38412 H 454.3182 L 412.57636,513.92553 H 384.02494 Z"
       id="path19"
       transform="translate(-156.94933,-304.54846)" />
    <path
       style="fill:#000080;fill-opacity:1;stroke:#000000;stroke-width:0"
       d="m 414.57997,431.27669 12.35559,-32.89257 -166.2995,115.20748 34.56225,0.33393 z"
       id="path18"
       transform="translate(-156.94933,-304.54846)" />
    <path
       style="fill:#000080;stroke:#000000;stroke-width:0"
       d="m 232.82172,229.75207 0.47226,19.95277 h 5.43093 l -0.23613,-14.6399 30.22433,14.6399 -0.23613,-19.95277 h -5.19481 l 0.11807,12.16056 -23.96695,-12.16056 z"
       id="path5" />
    <path
       style="fill:#000080;stroke:#000000;stroke-width:0"
       d="m 317.23731,229.75207 0.23613,3.65997 -23.96695,-0.11806 0.23613,4.36836 23.49469,0.11806 0.23613,3.77804 -23.61275,-0.23613 v 4.48643 l 24.55726,0.11806 -1.29871,3.77804 h -29.75206 l 0.11806,-19.95277 z"
       id="path6" />
    <path
       style="fill:#ffffff;fill-opacity:1;stroke:#000000;stroke-width:0"
       d="m 76.679762,241.97745 14.818353,0.12523 -7.37769,-8.13966 z"
       id="path8" />
    <path
       style="fill:#000080;fill-opacity:1;stroke:#000000;stroke-width:0"
       d="m 84.088938,229.16271 0.03149,4.80031 -7.440663,8.01443 -2.462769,3.96548 -3.673282,3.76191 H 63.5183 Z"
       id="path11"
       inkscape:label="path11" />
    <path
       style="fill:#000080;fill-opacity:1;stroke:#000000;stroke-width:0"
       d="m 84.088938,229.16271 20.683082,20.54213 h -7.096113 l -3.589798,-3.76191 -2.587994,-3.84025 -7.377687,-8.13966 z"
       id="path12"
       inkscape:label="path12" />
    <path
       style="fill:#000080;fill-opacity:1;stroke:#000000;stroke-width:0"
       d="m 76.679765,241.97745 14.81835,0.12523 2.587994,3.84025 H 74.216996 Z"
       id="path13" />
    <path
       style="fill:#000080;fill-opacity:1;stroke:#000000;stroke-width:0"
       d="m 179.40643,237.92849 -2.17057,-1.92014"
       id="path14" />
    <path
       style="fill:#000080;fill-opacity:1;stroke:#000000;stroke-width:0"
       d="m 158.08737,249.70484 -0.11807,-19.95277 h 6.13932 v 19.95277 z"
       id="path15" />
    <path
       style="fill:#000080;fill-opacity:1;stroke:#000000;stroke-width:0"
       d="m 164.10862,229.75207 21.53057,0.16697 c 2.01495,0 3.31283,0.37468 4.72255,1.18063 0.90168,0.4982 2.02634,1.55414 2.48528,2.82161 0.22134,0.69569 0.44095,1.39138 0.44484,2.08707 0.0438,1.1043 -0.068,2.72974 -0.77162,3.7201 -0.73129,1.11473 -1.8136,1.89746 -2.86811,2.41597 -0.87728,0.37194 -1.9551,0.66039 -3.22946,0.74014 l -22.31405,-0.0274 v -3.12869 l 19.12633,-0.29468 c 1.50489,-0.27914 1.92231,-0.55827 2.22172,-0.83741 0.87724,-0.61436 1.01087,-1.12248 1.1258,-1.62794 0.15765,-0.32916 0.0919,-0.95617 -0.0835,-1.72936 -0.37486,-0.50493 -0.74971,-1.1241 -1.12457,-1.31778 -0.56207,-0.28921 -1.24855,-0.44296 -2.02141,-0.6273 l -19.24439,-0.23613 z"
       id="path16"
       sodipodi:nodetypes="cccccccccccccccccc" />
    <path
       style="fill:#000080;fill-opacity:1;stroke:#000000;stroke-width:0"
       d="m 257.63064,126.72823 -4.34115,-1.50271 16.69674,-31.38986 -5.67689,33.89437 z"
       id="path20" />
  </g>
</svg>
